# xmcd CD database file
#
# Track frame offsets:
#	150
#	12415
#	42050
#	71160
#
# Disc length: 1682 seconds
#
# Revision: 0
# Processed by: cddbd v1.5.1PL0 Copyright (c) Steve Scherf et al.
# Submitted via: CDex 1.51
#
DISCID=2e069004
DTITLE=Navel／Lantis - SHUFFLE！ ドラマシリーズ FILE.03 芙蓉楓
DYEAR=2004
DGENRE=Game
TTITLE0=芙蓉楓(後藤邑子) - only one, only love(Drama size)
TTITLE1=突然のBreakDown
TTITLE2=友達はお風呂屋さん
TTITLE3=思い出せない過去
EXTD=YEAR: 20040723
EXTT0=
EXTT1=
EXTT2=
EXTT3=
PLAYORDER=
